{"title":"DBZ Abridged (TeamFourStar)","uid":10819965,"size":1548278670,"categoryP":"video","categoryS":"tv_shows","magnet":"?xt=urn:btih:621f0b215720b34473c110ac28ca8c284ab39bb2&amp;dn=DBZ+Abridged+%28TeamFourStar%29&amp;tr=udp%3A%2F%2Ftracker.openbittorrent.com%3A80&amp;tr=udp%3A%2F%2Fopen.demonii.com%3A1337&amp;tr=udp%3A%2F%2Ftracker.coppersurfer.tk%3A6969&amp;tr=udp%3A%2F%2Fexodus.desync.com%3A6969","seeders":1,"leechers":2,"uploader":"Huntercpe","files":44,"time":1408508355,"description":"DBZ Abridged Episodes 1-37 with Movie Specials included.\n\nYoutube rips at 360p\n\n\n\nGeneral(TeamFourStar)TFS Abridged Parody\nFormat                         : MPEG-4\nFormat profile                 : Base Media / Version 2\nCodec ID                       : mp42\nOverall bit rate mode          : Variable\nOverall bit rate               : 463 Kbps\nEncoded date                   : UTC 2013-06-13 07:40:25\nTagged date                    : UTC 2013-06-13 07:40:25\ngsst                           : 0\ngstd                           : 521148\ngssd                           : B4A7DAAE5HH1383265662418781\ngshh                           : r4---sn-nwj7kner.googlevideo.com\n\nVideo\nID                             : 1\nFormat                         : AVC\nFormat/Info                    : Advanced Video Codec\nFormat profile                 : &lt;a class=&quot;__cf_email__&quot; href=&quot;/cdn-cgi/l/email-protection&quot; data-cfemail=&quot;bbf9dac8ded7d2d5defbf789958a&quot;&gt;[email&amp;#160;protected]&lt;/a&gt;&lt;script cf-hash='f9e31' type=&quot;text/javascript&quot;&gt;\n/* &lt;![CDATA[ */!function(){try{var t=&quot;currentScript&quot;in document?document.currentScript:function(){for(var t=document.getElementsByTagName(&quot;script&quot;),e=t.length;e--;)if(t[e].getAttribute(&quot;cf-hash&quot;))return t[e]}();if(t&amp;&amp;t.previousSibling){var e,r,n,i,c=t.previousSibling,a=c.getAttribute(&quot;data-cfemail&quot;);if(a){for(e=&quot;&quot;,r=parseInt(a.substr(0,2),16),n=2;a.length-n;n+=2)i=parseInt(a.substr(n,2),16)^r,e+=String.fromCharCode(i);e=document.createTextNode(e),c.parentNode.replaceChild(e,c)}}}catch(u){}}();/* ]]&gt; */&lt;/script&gt;\nFormat settings, CABAC         : No\nFormat settings, ReFrames      : 1 frame\nFormat settings, GOP           : M=1, N=60\nCodec ID                       : avc1\nCodec ID/Info                  : Advanced Video Coding\nDuration                       : 8mn 41s\nBit rate                       : 365 Kbps\nMaximum bit rate               : 1 494 Kbps\nWidth                          : 576 pixels\nHeight                         : 320 pixels\nDisplay aspect ratio           : 16:9\nFrame rate mode                : Constant\nFrame rate                     : 25.000 fps\nColor space                    : YUV\nChroma subsampling             : 4:2:0\nBit depth                      : 8 bits\nScan type                      : Progressive\nBits/(Pixel*Frame)             : 0.079\nStream size                    : 22.6 MiB (79%)\nTagged date                    : UTC 2013-06-13 07:40:37\n\nAudio\nID                             : 2\nFormat                         : AAC\nFormat/Info                    : Advanced Audio Codec\nFormat profile                 : LC\nCodec ID                       : 40\nDuration                       : 8mn 41s\nBit rate mode                  : Variable\nBit rate                       : 96.0 Kbps\nMaximum bit rate               : 104 Kbps\nChannel(s)                     : 2 channels\nChannel positions              : Front: L R\nSampling rate                  : 44.1 KHz\nCompression mode               : Lossy\nStream size                    : 5.96 MiB (21%)\nTitle                          : IsoMedia File Produced by Google, 5-11-2011\nEncoded date                   : UTC 2013-06-13 07:40:30\nTagged date                    : UTC 2013-06-13 07:40:37\n\n\n\n","torrent":{"xt":"urn:btih:621f0b215720b34473c110ac28ca8c284ab39bb2","amp;dn":"DBZ+Abridged+%28TeamFourStar%29","amp;tr":["udp%3A%2F%2Ftracker.openbittorrent.com%3A80","udp%3A%2F%2Fopen.demonii.com%3A1337","udp%3A%2F%2Ftracker.coppersurfer.tk%3A6969","udp%3A%2F%2Fexodus.desync.com%3A6969"],"infoHash":"621f0b215720b34473c110ac28ca8c284ab39bb2","infoHashBuffer":{"type":"Buffer","data":[98,31,11,33,87,32,179,68,115,193,16,172,40,202,140,40,74,179,155,178]},"announce":[],"urlList":[]}}